<svg xmlns="http://www.w3.org/2000/svg" viewBox="0 0 799 102.4">
  <path fill="#5f6368" d="M417.3 7.7h9.4L408 77.9h-9.2l-15.1-46.3h-.4l-15.1 46.3H359L339.5 7.7h9.4l14.8 55.2h.4l15.2-45.8h8.4l15.2 45.8h.4z"/>
  <g fill="#5f6368">
    <path d="M425.9 53.9c0-7.4 2.3-13.5 7-18.3 4.7-4.8 10.6-7.3 17.7-7.3s13 2.4 17.6 7.3c4.7 4.8 7.1 10.9 7.1 18.3s-2.4 13.6-7.1 18.3c-4.6 4.8-10.5 7.3-17.6 7.3-7.1 0-13-2.4-17.7-7.3-4.7-4.8-7-10.9-7-18.3m9 0c0 5.2 1.5 9.3 4.5 12.5 3 3.2 6.7 4.8 11.2 4.8 4.4 0 8.2-1.6 11.2-4.8 3-3.2 4.5-7.4 4.5-12.5s-1.5-9.2-4.5-12.4c-3.1-3.3-6.8-4.9-11.2-4.9-4.4 0-8.1 1.6-11.2 4.9-3 3.1-4.5 7.3-4.5 12.4m55.8 24h-9v-48h8.6v7.8h.4c.9-2.5 2.8-4.7 5.6-6.5s5.6-2.7 8.4-2.7c2.6 0 4.8.4 6.7 1.2l-2.8 8.7c-1.1-.5-2.9-.7-5.3-.7-3.4 0-6.4 1.4-8.9 4.1-2.5 2.7-3.8 5.9-3.8 9.6v26.5zm67.1 0h-10.9l-15-22.6-7.3 7.2v15.4h-9.1V7.7h9.1v43.2l20.7-21h11.6v.4l-18.7 18.6 19.6 28.6z"/>
    <path d="M596.8 64.6c0 4.2-1.8 7.7-5.5 10.6s-8.3 4.3-13.8 4.3c-4.8 0-9.1-1.3-12.7-3.8-3.6-2.4-6.3-5.9-7.8-9.9l8-3.4c1.2 2.9 2.9 5.1 5.1 6.7 2.1 1.6 4.7 2.4 7.4 2.4 2.9 0 5.3-.6 7.2-1.9 1.9-1.2 2.9-2.7 2.9-4.4 0-3.1-2.4-5.3-7.1-6.8l-8.2-2.1c-9.3-2.4-14-6.9-14-13.5 0-4.4 1.8-7.9 5.3-10.5s8.1-4 13.7-4c4.2 0 8.1 1 11.5 3 3.4 2 5.8 4.7 7.2 8.1l-8 3.3c-.9-2-2.5-3.7-4.5-4.8-2.1-1.2-4.5-1.7-6.9-1.7-2.2 0-4.4.6-6.3 1.8-1.9 1.2-2.8 2.6-2.8 4.3 0 2.7 2.6 4.7 7.7 5.9l7.3 1.9c9.5 2.4 14.3 7.2 14.3 14.5m31.3 14.9c-3.5 0-6.7-.8-9.7-2.3-2.9-1.5-5.1-3.5-6.7-6h-.4l.4 6.7v21.2h-9V29.9h8.6v6.7h.4c1.6-2.5 3.8-4.5 6.7-6 2.9-1.5 6.1-2.3 9.7-2.3 6.3 0 11.7 2.5 16.1 7.4 4.5 5 6.8 11.1 6.8 18.1 0 7.1-2.3 13.2-6.8 18.1-4.4 5.1-9.8 7.6-16.1 7.6m-1.5-8.3c4.3 0 7.9-1.6 10.9-4.9 2.9-3.2 4.4-7.3 4.4-12.4 0-5-1.5-9.2-4.4-12.4-2.9-3.3-6.6-4.9-10.9-4.9-4.4 0-8 1.6-11 4.9-2.9 3.3-4.3 7.4-4.3 12.4 0 5.1 1.4 9.3 4.3 12.5 3 3.2 6.7 4.8 11 4.8m49-42.9c6.7 0 11.9 1.8 15.8 5.3s5.8 8.4 5.8 14.7v29.6h-8.6v-6.7h-.4c-3.7 5.5-8.7 8.2-14.9 8.2-5.3 0-9.7-1.6-13.3-4.7-3.6-3.1-5.3-7.1-5.3-11.8 0-5 1.9-8.9 5.6-11.9 3.8-2.9 8.8-4.4 15-4.4 5.4 0 9.8 1 13.2 2.9v-2.1c0-3.1-1.2-5.8-3.7-8-2.4-2.2-5.5-3.3-8.7-3.3-5 0-9 2.1-12 6.4l-7.9-5c4.4-6.1 10.9-9.2 19.4-9.2M664 63.2c0 2.4 1 4.3 3 5.9 2 1.6 4.3 2.4 7 2.4 3.8 0 7.2-1.4 10.1-4.2s4.5-6.1 4.5-9.9c-2.8-2.2-6.7-3.3-11.8-3.3-3.7 0-6.7.9-9.2 2.6s-3.6 3.9-3.6 6.5m63.8 16.3c-7.1 0-13-2.4-17.7-7.3-4.6-5-7-11.1-7-18.3 0-7.4 2.3-13.5 7-18.3 4.7-4.8 10.6-7.3 17.7-7.3 4.9 0 9.2 1.2 12.8 3.7s6.4 5.8 8.2 10.1l-8.2 3.4c-2.5-6-7-9-13.4-9-4.1 0-7.7 1.7-10.7 5-2.9 3.3-4.4 7.4-4.4 12.3s1.5 9 4.4 12.3c3 3.3 6.6 5 10.7 5 6.6 0 11.2-3 13.9-9l8 3.4c-1.8 4.3-4.5 7.7-8.3 10.1-3.7 2.6-8.1 3.9-13 3.9m48.5 0c-7.1 0-12.9-2.4-17.4-7.3-4.6-4.8-6.9-10.9-6.9-18.3 0-7.3 2.2-13.4 6.7-18.3 4.4-4.9 10.1-7.3 17.1-7.3 7.1 0 12.8 2.3 17 6.9 4.2 4.6 6.3 11.1 6.3 19.4l-.1 1h-37.7c.1 4.7 1.7 8.5 4.7 11.4 3 2.9 6.6 4.3 10.8 4.3 5.7 0 10.3-2.9 13.5-8.6l8 3.9c-2 3.9-5.2 7.2-9 9.5-3.9 2.2-8.2 3.4-13 3.4m-14.4-31.4h27.5c-.3-3.3-1.6-6.1-4.1-8.3-2.4-2.2-5.7-3.3-9.8-3.3-3.4 0-6.3 1-8.8 3.1s-4.1 5-4.8 8.5"/>
  </g>
  <path d="M40.5 47.1V36.3h36.3c.4 2.2.6 4.4.6 6.7 0 8.1-2.2 18.2-9.4 25.4-7 7.3-15.9 11.1-27.7 11.1C18.4 79.4 0 61.6 0 39.7S18.4 0 40.3 0C52.4 0 61 4.7 67.5 10.9l-7.7 7.7c-4.7-4.4-10.9-7.8-19.6-7.8-16 0-28.5 12.9-28.5 28.9s12.5 28.9 28.5 28.9c10.4 0 16.3-4.2 20-7.9 3.1-3.1 5.1-7.5 5.9-13.5l-25.6-.1z" fill="#4285f4"/>
  <path d="M132.7 53.9c0 14.7-11.5 25.6-25.7 25.6S81.4 68.6 81.4 53.9c0-14.8 11.5-25.6 25.7-25.6s25.6 10.7 25.6 25.6m-11.2 0c0-9.2-6.7-15.5-14.4-15.5s-14.4 6.3-14.4 15.5c0 9.1 6.7 15.5 14.4 15.5s14.4-6.4 14.4-15.5" fill="#ea4335"/>
  <path d="M188.7 53.9c0 14.7-11.5 25.6-25.7 25.6s-25.7-10.8-25.7-25.6 11.5-25.6 25.7-25.6 25.7 10.7 25.7 25.6m-11.2 0c0-9.2-6.7-15.5-14.4-15.5s-14.4 6.3-14.4 15.5c0 9.1 6.7 15.5 14.4 15.5s14.4-6.4 14.4-15.5" fill="#fbbc04"/>
  <path d="M242.4 29.8v45.9c0 18.9-11.1 26.6-24.3 26.6-12.4 0-19.9-8.3-22.7-15.1l9.8-4.1c1.7 4.2 6 9.1 12.9 9.1 8.4 0 13.7-5.2 13.7-15v-3.7h-.4c-2.5 3.1-7.4 5.8-13.5 5.8-12.8 0-24.5-11.1-24.5-25.5s11.7-25.7 24.5-25.7c6.1 0 10.9 2.7 13.5 5.7h.4v-4.2h10.6zM232.5 54c0-9-6-15.6-13.7-15.6-7.7 0-14.2 6.6-14.2 15.6 0 8.9 6.5 15.4 14.2 15.4 7.7 0 13.7-6.5 13.7-15.4" fill="#4285f4"/>
  <path fill="#34a853" d="M250.2 3h11.2v74.9h-11.2z"/>
  <path d="M304.8 62.3l8.7 5.8c-2.8 4.2-9.6 11.3-21.3 11.3-14.5 0-25.4-11.2-25.4-25.6 0-15.2 10.9-25.6 24.1-25.6 13.3 0 19.8 10.6 21.9 16.3l1.2 2.9-34.2 14.1c2.6 5.1 6.7 7.8 12.4 7.8 5.7.1 9.7-2.7 12.6-7M278 53.1l22.9-9.5c-1.3-3.2-5-5.4-9.5-5.4-5.8 0-13.7 5-13.4 14.9" fill="#ea4335"/>
</svg>
