<svg xmlns="http://www.w3.org/2000/svg" fill="none" viewBox="0 0 1200 330">
  <path d="M0 260.539V0h49.556v260.539H0zm213.092-.002v-98.184c0-39.805-13.529-61.034-40.636-61.034-14.867 0-41.628 9.65-41.628 52.446v106.772h-48.07V65.134h44.602V82.02c15.957-15.15 32.211-23.593 55.354-23.593 26.067 0 78.498 15.825 78.498 86.846v115.264h-48.12zm82.524.002V106.676h-28.742V65.134h28.742V0h48.12v260.539h-48.12zm74.323-.001V65.134h44.155v17.272h.694c12.686-18.334 23.143-24.124 45.939-24.124h1.09v45.402c-28.941 1.061-43.759 16.211-43.759 45.45v111.404h-48.119zm137.173-76.713c3.618 17.224 25.67 40.142 55.305 40.142 19.822 0 36.525-7.768 46.284-24.992h50.651c-8.241 22.778-24.541 41.955-45.981 54.099-21.441 12.144-46.62 16.46-71.031 12.176-24.411-4.284-46.458-16.889-62.193-35.557-15.735-18.668-24.13-42.18-23.682-66.325 0-57.898 44.601-104.891 105.605-104.891a105.514 105.514 0 0140.097 7.476c12.716 5.07 24.267 12.568 33.964 22.05 9.696 9.482 17.346 20.757 22.498 33.161a97.896 97.896 0 017.507 39.068 111.442 111.442 0 01-2.923 23.593H507.112zm109.568-37.682c-4.953-28.177-24.779-44.725-54.511-44.725-26.413 0-48.813 14.811-56.445 44.725H616.68zm65.762 179.58V65.184h44.156v22.919h.693c7.633-9.645 17.528-17.366 28.857-22.512a79.943 79.943 0 0136.262-7.065c58.97 0 100.55 48.248 100.55 103.492 0 57.415-43.758 104.939-100.55 104.939-25.672 0-42.666-6.658-61.848-24.992v83.758h-48.12zM844.84 162.694c0-31.699-24.233-61.275-58.225-61.275-33.253 0-58.925 27.453-58.925 61.275 0 41.204 33.253 61.274 58.578 61.274 32.9 0 58.572-28.9 58.572-61.274zM916.8 42.94V0h48.069v42.94H916.8zm0 217.599V65.134h48.069V260.54H916.8zm239.1 0v-24.124h-.5c-13.03 19.685-37.61 30.251-64.03 30.251-56.05 0-102.332-45.787-102.332-103.878a100.05 100.05 0 017.206-39.451c5.046-12.56 12.596-24.026 22.206-33.74 9.6-9.715 21.09-17.485 33.79-22.867a107.662 107.662 0 0140.22-8.495 78.827 78.827 0 0132.45 5.717c10.27 4.164 19.49 10.444 27.02 18.407V0H1200v260.539h-44.1zm-.5-97.847c0-32.423-25.57-61.372-59.47-61.372-30.38 0-58.97 27.454-58.97 59.876 0 34.497 26.06 62.722 59.46 62.722 33.41 0 58.98-27.79 58.98-61.226z" fill="#101010"/>
</svg>
