<svg fill="none" xmlns="http://www.w3.org/2000/svg" viewBox="0 0 1062 343">
  <path d="M86.56 48v217.534H31V48h55.56zm91.265 94.657c-9.799 0-16.952 2.743-21.46 8.231-4.311 5.291-6.467 13.522-6.467 24.693v89.953H101.1V102.383h45.565v17.344h.587c5.096-8.231 11.171-14.11 18.226-17.638 7.251-3.527 15.972-5.29 26.163-5.29 10.583 0 20.382 2.155 29.397 6.466 9.21 4.312 16.658 11.269 22.341 20.872 5.879 9.603 8.819 22.047 8.819 37.333v104.064H203.4v-90.541c0-11.171-2.058-19.304-6.174-24.399-4.115-5.292-10.582-7.937-19.401-7.937zm205.785-40.274v17.344h.587c4.116-8.427 9.505-14.306 16.169-17.638 6.663-3.527 14.894-5.29 24.693-5.29v49.091c-13.915.196-23.812 2.744-29.691 7.643-5.879 4.9-8.819 12.249-8.819 22.048v89.953h-48.798V102.383h45.859zM509.787 229.67c6.467 0 11.954-1.176 16.462-3.528 4.703-2.547 9.113-6.467 13.228-11.758h49.974c-7.839 17.834-18.814 31.748-32.924 41.743-13.914 9.799-29.494 14.698-46.74 14.698-15.483 0-29.887-3.822-43.213-11.465-13.131-7.643-23.615-18.029-31.454-31.16-7.839-13.326-11.759-27.926-11.759-43.801 0-15.482 3.822-29.886 11.465-43.212 7.643-13.523 17.932-24.301 30.866-32.336 13.13-8.035 27.535-12.053 43.213-12.053 16.07 0 30.67 3.92 43.8 11.759 13.131 7.839 23.42 18.519 30.867 32.042 7.643 13.522 11.464 28.612 11.464 45.27 0 4.704-.392 9.015-1.176 12.935H471.571c1.372 9.211 5.586 16.658 12.641 22.341s15.58 8.525 25.575 8.525zm-.882-91.717c-9.015 0-16.952 2.548-23.811 7.643-6.664 4.9-10.975 11.661-12.935 20.284h74.079c-1.96-8.427-6.369-15.188-13.228-20.284-6.663-5.095-14.698-7.643-24.105-7.643zm142.437-35.57v17.932h.882c12.543-15.678 29.593-23.517 51.15-23.517 15.286 0 28.906 3.92 40.861 11.759 12.15 7.643 21.557 18.225 28.221 31.748 6.859 13.326 10.288 28.416 10.288 45.27 0 15.482-3.429 29.789-10.288 42.919-6.664 12.935-16.071 23.321-28.221 31.16-11.955 7.643-25.575 11.465-40.861 11.465-20.382 0-36.746-6.761-49.092-20.284v69.082h-48.798V102.383h45.858zm82.604 81.722c0-7.643-1.862-14.6-5.585-20.871-3.528-6.467-8.427-11.563-14.698-15.286-6.272-3.724-13.229-5.585-20.872-5.585-7.447 0-14.306 1.861-20.577 5.585-6.076 3.723-10.975 8.819-14.699 15.286-3.527 6.271-5.291 13.228-5.291 20.871 0 7.644 1.764 14.601 5.291 20.872 3.724 6.271 8.623 11.269 14.699 14.992 6.271 3.724 13.228 5.585 20.871 5.585 7.643 0 14.502-1.861 20.578-5.585 6.271-3.723 11.17-8.721 14.698-14.992 3.723-6.467 5.585-13.424 5.585-20.872zM842.513 48v37.04h-46.756V48h46.756zm0 54.383v163.151h-46.756V102.383h46.756zm141.453 145.513c-9.211 15.286-25.477 22.929-48.798 22.929-16.07 0-30.377-3.822-42.919-11.465-12.347-7.643-21.95-18.029-28.809-31.16-6.663-13.326-7.953-28.22-7.953-44.682 0-16.07 1.388-30.671 8.247-43.801 6.859-13.327 16.462-23.811 28.809-31.454 12.346-7.643 26.261-11.465 41.743-11.465 9.603 0 18.226 1.568 25.869 4.704 7.839 2.939 15.188 7.839 22.047 14.698V48H1031v217.534h-46.446v-17.638h-.588zm.882-64.672c0-7.447-1.764-14.307-5.292-20.578-3.527-6.271-8.525-11.171-14.992-14.698-6.271-3.724-13.326-5.585-21.165-5.585-11.563 0-21.362 3.919-29.397 11.758-7.839 7.643-11.758 17.344-11.758 29.103 0 12.346 3.821 22.439 11.464 30.278 7.839 7.839 17.638 11.759 29.397 11.759 11.954 0 21.851-4.018 29.69-12.053 8.035-8.035 12.053-18.03 12.053-29.984zm-727.113-43.801v-37.04h24.105V48h48.798v217.534H281.84V139.423h-24.105z" fill="#fff"/>
</svg>
